<mxfile host="app.diagrams.net" agent="Mozilla/5.0 (X11; Linux x86_64; rv:138.0) Gecko/20100101 Firefox/138.0" scale="1" border="30" version="27.0.6">
  <diagram name="Page-1" id="52a04d89-c75d-2922-d76d-85b35f80e030">
    <mxGraphModel dx="1426" dy="956" grid="1" gridSize="10" guides="1" tooltips="1" connect="1" arrows="1" fold="1" page="1" pageScale="1" pageWidth="1100" pageHeight="850" background="none" math="0" shadow="0">
      <root>
        <mxCell id="0" />
        <mxCell id="1" parent="0" />
        <mxCell id="T5-91JYNc3GaPlm2d96n-3" value="" style="edgeStyle=orthogonalEdgeStyle;rounded=0;orthogonalLoop=1;jettySize=auto;html=1;exitX=1;exitY=0.5;exitDx=0;exitDy=0;exitPerimeter=0;" parent="1" source="T5-91JYNc3GaPlm2d96n-6" target="T5-91JYNc3GaPlm2d96n-2" edge="1">
          <mxGeometry relative="1" as="geometry">
            <mxPoint x="360" y="225" as="sourcePoint" />
          </mxGeometry>
        </mxCell>
        <mxCell id="T5-91JYNc3GaPlm2d96n-8" value="" style="edgeStyle=orthogonalEdgeStyle;rounded=0;orthogonalLoop=1;jettySize=auto;html=1;" parent="1" source="T5-91JYNc3GaPlm2d96n-2" target="T5-91JYNc3GaPlm2d96n-7" edge="1">
          <mxGeometry relative="1" as="geometry" />
        </mxCell>
        <mxCell id="T5-91JYNc3GaPlm2d96n-2" value="&lt;div&gt;original_circuit&lt;/div&gt;" style="rounded=1;whiteSpace=wrap;html=1;fillColor=#dae8fc;strokeColor=#6c8ebf;" parent="1" vertex="1">
          <mxGeometry x="400" y="190" width="110" height="70" as="geometry" />
        </mxCell>
        <mxCell id="T5-91JYNc3GaPlm2d96n-10" style="edgeStyle=orthogonalEdgeStyle;rounded=0;orthogonalLoop=1;jettySize=auto;html=1;exitX=0.5;exitY=1;exitDx=0;exitDy=0;exitPerimeter=0;entryX=0.31;entryY=0.028;entryDx=0;entryDy=0;entryPerimeter=0;" parent="1" source="T5-91JYNc3GaPlm2d96n-6" target="T5-91JYNc3GaPlm2d96n-9" edge="1">
          <mxGeometry relative="1" as="geometry">
            <Array as="points">
              <mxPoint x="275" y="330" />
              <mxPoint x="327" y="330" />
            </Array>
          </mxGeometry>
        </mxCell>
        <mxCell id="T5-91JYNc3GaPlm2d96n-6" value="&lt;div&gt;dataset&lt;/div&gt;&lt;div&gt;&lt;br&gt;&lt;/div&gt;(inputs)" style="whiteSpace=wrap;html=1;shape=mxgraph.basic.document" parent="1" vertex="1">
          <mxGeometry x="240" y="180" width="70" height="90" as="geometry" />
        </mxCell>
        <mxCell id="T5-91JYNc3GaPlm2d96n-11" style="edgeStyle=orthogonalEdgeStyle;rounded=0;orthogonalLoop=1;jettySize=auto;html=1;exitX=0.5;exitY=1;exitDx=0;exitDy=0;exitPerimeter=0;entryX=0.683;entryY=0.046;entryDx=0;entryDy=0;entryPerimeter=0;" parent="1" source="T5-91JYNc3GaPlm2d96n-7" target="T5-91JYNc3GaPlm2d96n-9" edge="1">
          <mxGeometry relative="1" as="geometry">
            <Array as="points">
              <mxPoint x="645" y="330" />
              <mxPoint x="372" y="330" />
            </Array>
          </mxGeometry>
        </mxCell>
        <mxCell id="T5-91JYNc3GaPlm2d96n-7" value="&lt;div&gt;output.txt&lt;/div&gt;&lt;div&gt;&lt;br&gt;&lt;/div&gt;&lt;div&gt;(outputs)&lt;/div&gt;" style="whiteSpace=wrap;html=1;shape=mxgraph.basic.document" parent="1" vertex="1">
          <mxGeometry x="610" y="180" width="70" height="90" as="geometry" />
        </mxCell>
        <mxCell id="T5-91JYNc3GaPlm2d96n-33" value="" style="edgeStyle=orthogonalEdgeStyle;rounded=0;orthogonalLoop=1;jettySize=auto;html=1;" parent="1" source="T5-91JYNc3GaPlm2d96n-9" target="T5-91JYNc3GaPlm2d96n-32" edge="1">
          <mxGeometry relative="1" as="geometry" />
        </mxCell>
        <mxCell id="T5-91JYNc3GaPlm2d96n-9" value="&lt;div&gt;DecisionTreeCircuit&lt;/div&gt;" style="ellipse;whiteSpace=wrap;html=1;fillColor=#d5e8d4;strokeColor=#82b366;" parent="1" vertex="1">
          <mxGeometry x="290" y="350" width="120" height="80" as="geometry" />
        </mxCell>
        <mxCell id="T5-91JYNc3GaPlm2d96n-14" value="train" style="text;html=1;align=center;verticalAlign=middle;whiteSpace=wrap;rounded=0;" parent="1" vertex="1">
          <mxGeometry x="320" y="320" width="60" height="30" as="geometry" />
        </mxCell>
        <mxCell id="T5-91JYNc3GaPlm2d96n-18" value="exact_output" style="text;html=1;align=center;verticalAlign=middle;whiteSpace=wrap;rounded=0;" parent="1" vertex="1">
          <mxGeometry x="510" y="200" width="100" height="30" as="geometry" />
        </mxCell>
        <mxCell id="T5-91JYNc3GaPlm2d96n-19" value="&lt;div&gt;approximate_circuit&lt;/div&gt;" style="rounded=1;whiteSpace=wrap;html=1;fillColor=#dae8fc;strokeColor=#6c8ebf;fontSize=12;" parent="1" vertex="1">
          <mxGeometry x="550" y="520" width="120" height="70" as="geometry" />
        </mxCell>
        <mxCell id="T5-91JYNc3GaPlm2d96n-21" value="to_verilog_file" style="text;html=1;align=center;verticalAlign=middle;whiteSpace=wrap;rounded=0;" parent="1" vertex="1">
          <mxGeometry x="350" y="470" width="80" height="30" as="geometry" />
        </mxCell>
        <mxCell id="T5-91JYNc3GaPlm2d96n-29" value="" style="edgeStyle=orthogonalEdgeStyle;rounded=0;orthogonalLoop=1;jettySize=auto;html=1;" parent="1" source="T5-91JYNc3GaPlm2d96n-28" target="T5-91JYNc3GaPlm2d96n-2" edge="1">
          <mxGeometry relative="1" as="geometry" />
        </mxCell>
        <mxCell id="T5-91JYNc3GaPlm2d96n-28" value="circuit.v" style="whiteSpace=wrap;html=1;shape=mxgraph.basic.document" parent="1" vertex="1">
          <mxGeometry x="418.75" y="60" width="72.5" height="90" as="geometry" />
        </mxCell>
        <mxCell id="T5-91JYNc3GaPlm2d96n-36" value="" style="edgeStyle=orthogonalEdgeStyle;rounded=0;orthogonalLoop=1;jettySize=auto;html=1;" parent="1" source="T5-91JYNc3GaPlm2d96n-32" target="T5-91JYNc3GaPlm2d96n-19" edge="1">
          <mxGeometry relative="1" as="geometry" />
        </mxCell>
        <mxCell id="T5-91JYNc3GaPlm2d96n-32" value="&lt;font style=&quot;font-size: 10px;&quot;&gt;approx_circuit.v&lt;/font&gt;" style="whiteSpace=wrap;html=1;shape=mxgraph.basic.document" parent="1" vertex="1">
          <mxGeometry x="310" y="510" width="80" height="90" as="geometry" />
        </mxCell>
        <mxCell id="T5-91JYNc3GaPlm2d96n-34" value="read_dataset" style="text;html=1;align=center;verticalAlign=middle;whiteSpace=wrap;rounded=0;" parent="1" vertex="1">
          <mxGeometry x="570" y="270" width="60" height="30" as="geometry" />
        </mxCell>
        <mxCell id="T5-91JYNc3GaPlm2d96n-35" value="read_dataset" style="text;html=1;align=center;verticalAlign=middle;whiteSpace=wrap;rounded=0;" parent="1" vertex="1">
          <mxGeometry x="270" y="270" width="100" height="30" as="geometry" />
        </mxCell>
        <mxCell id="T5-91JYNc3GaPlm2d96n-37" value="Circuit(&quot;circuit.v&quot;)" style="text;whiteSpace=wrap;html=1;" parent="1" vertex="1">
          <mxGeometry x="460" y="160" width="120" height="40" as="geometry" />
        </mxCell>
        <mxCell id="T5-91JYNc3GaPlm2d96n-38" value="Circuit(&quot;approx_circuit.v&quot;)" style="text;whiteSpace=wrap;html=1;" parent="1" vertex="1">
          <mxGeometry x="400" y="530" width="150" height="20" as="geometry" />
        </mxCell>
      </root>
    </mxGraphModel>
  </diagram>
</mxfile>
